<?xml version="1.0" encoding="UTF-8" standalone="no"?>
<svg
   xmlns:dc="http://purl.org/dc/elements/1.1/"
   xmlns:cc="http://creativecommons.org/ns#"
   xmlns:rdf="http://www.w3.org/1999/02/22-rdf-syntax-ns#"
   xmlns:svg="http://www.w3.org/2000/svg"
   xmlns="http://www.w3.org/2000/svg"
   xmlns:sodipodi="http://sodipodi.sourceforge.net/DTD/sodipodi-0.dtd"
   xmlns:inkscape="http://www.inkscape.org/namespaces/inkscape"
   version="1.1"
   id="Capa_1"
   x="0px"
   y="0px"
   viewBox="0 0 338.605 338.605"
   style="enable-background:new 0 0 338.605 338.605;"
   xml:space="preserve"
   sodipodi:docname="compass.svg"
   inkscape:version="1.0.1 (c497b03c, 2020-09-10)"><metadata
   id="metadata65"><rdf:RDF><cc:Work
       rdf:about=""><dc:format>image/svg+xml</dc:format><dc:type
         rdf:resource="http://purl.org/dc/dcmitype/StillImage" /></cc:Work></rdf:RDF></metadata><defs
   id="defs63" /><sodipodi:namedview
   pagecolor="#ffffff"
   bordercolor="#666666"
   borderopacity="1"
   objecttolerance="10"
   gridtolerance="10"
   guidetolerance="10"
   inkscape:pageopacity="0"
   inkscape:pageshadow="2"
   inkscape:window-width="1639"
   inkscape:window-height="1159"
   id="namedview61"
   showgrid="false"
   inkscape:zoom="2.1706708"
   inkscape:cx="169.30251"
   inkscape:cy="169.30251"
   inkscape:window-x="204"
   inkscape:window-y="139"
   inkscape:window-maximized="0"
   inkscape:current-layer="Capa_1"
   inkscape:document-rotation="0" />
<g
   id="g28">
	<path
   d="M169.303,0.001C75.949,0.001,0,75.949,0,169.303s75.949,169.302,169.303,169.302s169.303-75.949,169.303-169.302   S262.656,0.001,169.303,0.001z M169.303,320c-83.095,0-150.697-67.603-150.697-150.698S86.208,18.605,169.303,18.605   S320,86.208,320,169.303S252.397,320,169.303,320z"
   id="path10" />
	<path
   d="M169.303,27.22C90.958,27.22,27.22,90.958,27.22,169.303s63.738,142.083,142.083,142.083s142.083-63.738,142.083-142.083   S247.647,27.22,169.303,27.22z M301.309,189.066l-9.702-1.71l-1.201,6.816l9.708,1.711c-1.095,5.393-2.516,10.668-4.24,15.805   l-9.258-3.369l-2.367,6.504l9.255,3.369c-2.015,5.1-4.335,10.046-6.939,14.817l-8.509-4.912l-3.459,5.994l8.494,4.903   c-2.863,4.657-6.005,9.124-9.399,13.382l-7.492-6.286l-4.449,5.302l7.486,6.282c-3.615,4.085-7.477,7.946-11.561,11.562   l-6.286-7.488l-5.301,4.449l6.29,7.493c-4.258,3.396-8.726,6.538-13.384,9.401l-4.901-8.492l-5.994,3.46l4.909,8.506   c-4.771,2.603-9.718,4.924-14.818,6.939l-3.369-9.254l-6.504,2.368l3.37,9.255c-5.138,1.725-10.412,3.146-15.805,4.24l-1.714-9.705   l-6.816,1.203l1.713,9.698c-5.339,0.796-10.777,1.28-16.301,1.421v-26.382h-6.922v26.382c-5.523-0.141-10.964-0.625-16.303-1.421   l1.714-9.697l-6.814-1.204l-1.716,9.705c-5.393-1.094-10.668-2.515-15.806-4.24l3.371-9.254l-6.502-2.369l-3.371,9.254   c-5.101-2.015-10.046-4.336-14.818-6.939l4.91-8.506l-5.994-3.46l-4.901,8.492c-4.658-2.863-9.126-6.005-13.384-9.401l6.288-7.493   l-5.301-4.449l-6.284,7.488c-4.085-3.616-7.946-7.477-11.562-11.562l7.486-6.282l-4.449-5.302l-7.492,6.286   c-3.395-4.257-6.537-8.725-9.399-13.382l8.494-4.902l-3.459-5.994l-8.509,4.911c-2.604-4.771-4.925-9.717-6.939-14.817l9.254-3.368   l-2.367-6.504l-9.256,3.369c-1.725-5.137-3.146-10.412-4.24-15.805l9.708-1.711l-1.201-6.816l-9.702,1.71   c-0.797-5.339-1.28-10.779-1.422-16.303h26.381v-6.921H35.875c0.142-5.524,0.625-10.963,1.422-16.302l9.702,1.711l1.201-6.816   l-9.708-1.711c1.095-5.393,2.516-10.668,4.24-15.806l9.256,3.369l2.367-6.504l-9.254-3.368c2.016-5.1,4.336-10.046,6.939-14.817   l8.509,4.911l3.459-5.994l-8.494-4.903c2.862-4.657,6.005-9.125,9.399-13.382l7.492,6.286l4.449-5.302l-7.486-6.282   c3.615-4.084,7.477-7.946,11.562-11.562l6.286,7.489l5.301-4.449l-6.29-7.494c4.258-3.396,8.726-6.538,13.384-9.401l4.901,8.492   l5.994-3.46l-4.909-8.506c4.771-2.603,9.718-4.924,14.818-6.939l3.369,9.255l6.504-2.367l-3.37-9.258   c5.137-1.725,10.412-3.146,15.805-4.24l1.714,9.708l6.816-1.203l-1.713-9.702c5.339-0.796,10.777-1.28,16.301-1.421v9.846h6.922   v-9.846c5.523,0.141,10.962,0.625,16.301,1.421l-1.713,9.702l6.816,1.203l1.714-9.708c5.393,1.094,10.667,2.515,15.804,4.239   l-3.369,9.258l6.504,2.367l3.368-9.256c5.101,2.015,10.048,4.336,14.819,6.939l-4.909,8.508l5.994,3.459l4.9-8.493   c4.658,2.863,9.126,6.005,13.384,9.401l-6.289,7.495l5.301,4.449l6.285-7.49c4.085,3.617,7.946,7.479,11.563,11.563l-7.486,6.283   l4.449,5.302l7.492-6.287c3.395,4.257,6.536,8.724,9.398,13.381l-8.494,4.905l3.461,5.993l8.508-4.913   c2.603,4.772,4.924,9.718,6.939,14.818l-9.255,3.37l2.367,6.503l9.258-3.371c1.725,5.138,3.146,10.413,4.24,15.807l-9.708,1.711   l1.201,6.816l9.702-1.711c0.797,5.339,1.28,10.778,1.422,16.302H276.35v6.921h26.381   C302.589,178.287,302.105,183.727,301.309,189.066z"
   id="path12" />
	
	
	
	
	
	
	
</g>
<g
   id="g30">
</g>
<g
   id="g32">
</g>
<g
   id="g34">
</g>
<g
   id="g36">
</g>
<g
   id="g38">
</g>
<g
   id="g40">
</g>
<g
   id="g42">
</g>
<g
   id="g44">
</g>
<g
   id="g46">
</g>
<g
   id="g48">
</g>
<g
   id="g50">
</g>
<g
   id="g52">
</g>
<g
   id="g54">
</g>
<g
   id="g56">
</g>
<g
   id="g58">
</g>
</svg>
